<?xml version="1.0" standalone="no"?>
<!DOCTYPE svg PUBLIC "-//W3C//DTD SVG 20010904//EN"
 "http://www.w3.org/TR/2001/REC-SVG-20010904/DTD/svg10.dtd">
<svg version="1.0" xmlns="http://www.w3.org/2000/svg"
 width="363.000000pt" height="363.000000pt" viewBox="0 0 363.000000 363.000000"
 preserveAspectRatio="xMidYMid meet">
<metadata>
Created by potrace 1.14, written by Peter Selinger 2001-2017
</metadata>
<g transform="translate(0.000000,363.000000) scale(0.100000,-0.100000)"
fill="#000000" stroke="none">
<path d="M3324 2651 c-50 -23 -74 -54 -74 -97 0 -62 46 -95 152 -110 63 -8 81
-29 48 -56 -20 -16 -35 -19 -76 -15 -29 3 -66 13 -83 21 l-31 17 0 -40 c0 -52
20 -63 115 -63 54 1 84 6 114 22 76 38 92 126 31 172 -14 10 -54 23 -90 29
-75 13 -100 30 -81 53 25 30 92 30 164 1 14 -6 17 -1 17 33 0 33 -4 41 -22 46
-47 12 -143 5 -184 -13z"/>
<path d="M3135 2643 c-16 -1 -58 -6 -92 -9 -62 -5 -63 -6 -63 -35 0 -25 4 -29
29 -29 28 0 30 -2 35 -52 3 -29 7 -80 9 -113 2 -59 2 -60 -26 -63 -26 -3 -28
-6 -22 -30 4 -15 8 -28 9 -30 2 -1 45 1 97 5 l94 8 3 34 c3 33 2 34 -26 28
l-30 -6 -6 67 c-4 37 -9 88 -12 115 -6 45 -5 47 19 47 14 0 29 5 32 11 8 12
-2 60 -13 58 -4 -1 -20 -4 -37 -6z"/>
<path d="M2840 2619 c-47 -5 -113 -11 -148 -15 l-63 -6 3 -31 3 -32 56 3 56 4
7 -99 c4 -54 9 -117 12 -140 6 -40 8 -43 38 -43 55 0 57 6 46 116 -5 54 -10
115 -10 135 0 36 0 36 50 43 49 7 50 7 50 41 0 19 -3 34 -7 34 -5 -1 -46 -5
-93 -10z"/>
<path d="M2418 2583 c-35 -4 -38 -8 -49 -46 -18 -71 -80 -291 -84 -305 -4 -10
7 -12 42 -10 46 3 48 4 56 41 8 31 13 37 35 37 15 0 44 3 64 6 36 6 39 5 54
-31 15 -36 17 -37 55 -32 23 3 43 7 45 10 2 2 -31 79 -73 170 -53 114 -83 166
-93 165 -8 -1 -32 -3 -52 -5z m71 -204 c1 -4 -17 -9 -40 -11 l-40 -4 6 34 c3
19 11 46 17 61 10 26 11 26 34 -24 12 -27 23 -53 23 -56z"/>
<path d="M2038 2551 c-36 -3 -69 -8 -72 -11 -4 -4 23 -343 27 -346 1 -1 57 3
125 9 l122 10 0 34 0 35 -85 -7 -85 -7 0 46 0 46 53 0 c80 0 99 8 95 39 -3 26
-4 26 -80 26 l-78 -1 0 27 c0 32 15 39 80 39 66 0 80 7 80 41 0 29 0 29 -57
27 -32 0 -88 -4 -125 -7z"/>
<path d="M1660 2483 c0 -20 5 -100 12 -176 l11 -139 96 7 c137 9 163 15 157
32 -3 8 -6 22 -6 32 0 15 -9 16 -77 10 -43 -4 -80 -5 -82 -3 -2 2 -9 64 -14
139 l-11 135 -43 0 c-43 0 -43 0 -43 -37z"/>
<path d="M1348 2493 c-27 -2 -48 -5 -48 -6 0 -1 7 -76 15 -167 8 -91 15 -168
15 -172 0 -5 21 -8 46 -8 l47 0 -7 59 -7 58 51 6 c89 11 140 58 140 131 0 25
-8 45 -29 68 -27 31 -33 33 -102 34 -41 1 -95 -1 -121 -3z m146 -79 c20 -19
20 -34 0 -62 -11 -16 -25 -22 -55 -22 l-39 0 0 50 0 50 39 0 c23 0 46 -7 55
-16z"/>
<path d="M1134 2473 c-28 -4 -32 -9 -58 -88 -15 -47 -30 -85 -34 -85 -4 0 -27
36 -51 81 -37 69 -46 80 -65 75 -11 -3 -35 -6 -51 -6 l-31 0 12 -137 c7 -76
13 -155 13 -176 l1 -38 43 3 c48 3 46 -7 34 148 l-7 85 38 -70 c21 -38 44 -70
50 -69 7 1 21 2 31 3 15 1 25 19 44 74 24 71 25 71 30 37 4 -19 9 -70 13 -113
l6 -78 41 6 c23 4 43 9 45 10 3 3 -15 232 -24 303 -6 45 -4 44 -80 35z"/>
<path d="M665 2433 c-16 -1 -57 -5 -90 -9 l-60 -5 14 -175 15 -176 50 6 c28 3
86 8 129 12 74 6 78 8 73 28 -3 11 -6 26 -6 33 0 9 -20 11 -79 6 l-78 -6 -7
38 c-4 20 -5 39 -2 42 3 3 37 8 76 11 l70 5 0 35 0 35 -80 -7 -80 -7 0 29 c0
27 3 30 46 36 26 3 62 6 80 6 32 0 34 2 34 35 0 34 -1 35 -37 34 -21 -1 -51
-4 -68 -6z"/>
<path d="M863 2039 c-121 -15 -235 -78 -302 -166 -117 -151 -129 -423 -28
-596 117 -199 421 -264 690 -148 l47 20 0 111 c0 60 -3 110 -6 110 -3 0 -23
-13 -43 -28 -102 -79 -196 -109 -287 -93 -157 29 -233 146 -222 337 7 126 54
210 143 257 32 17 57 22 125 22 74 0 92 -4 140 -29 30 -16 71 -42 91 -57 20
-16 42 -29 48 -29 7 0 11 36 11 110 l0 111 -47 20 c-99 42 -250 63 -360 48z"/>
<path d="M1791 2040 c-108 -16 -189 -58 -263 -137 -54 -59 -82 -110 -103 -190
-19 -73 -19 -232 0 -306 56 -215 224 -337 465 -337 241 0 409 122 465 337 19
74 19 232 0 308 -62 235 -287 365 -564 325z m217 -196 c107 -63 154 -279 96
-448 -55 -159 -252 -208 -368 -92 -50 50 -74 111 -83 213 -15 179 58 323 179
354 51 12 128 0 176 -27z"/>
<path d="M2570 1560 l0 -470 110 0 110 0 0 317 c0 174 4 313 8 308 5 -6 47
-99 93 -207 l84 -198 80 0 81 0 83 198 c46 108 87 201 92 207 5 5 9 -125 9
-308 l0 -317 115 0 115 0 0 470 0 471 -137 -3 -137 -3 -105 -237 c-58 -130
-108 -235 -111 -233 -3 2 -52 109 -110 239 l-105 236 -137 0 -138 0 0 -470z"/>
<path d="M40 1210 l0 -120 115 0 115 0 0 120 0 120 -115 0 -115 0 0 -120z"/>
</g>
</svg>
